<?xml version="1.0" encoding="utf-8"?>
<!-- Generator: Adobe Illustrator 16.0.0, SVG Export Plug-In . SVG Version: 6.00 Build 0)  -->
<!DOCTYPE svg PUBLIC "-//W3C//DTD SVG 1.1//EN" "http://www.w3.org/Graphics/SVG/1.1/DTD/svg11.dtd">
<svg version="1.1" id="Layer_1" xmlns="http://www.w3.org/2000/svg" xmlns:xlink="http://www.w3.org/1999/xlink" x="0px" y="0px"
	 width="388.955px" height="312.469px" viewBox="0 0 388.955 312.469" enable-background="new 0 0 388.955 312.469"
	 xml:space="preserve">
<path fill="#FFFFFF" d="M369.953,267.741c-8.002-2.385-16.021-4.736-23.92-7.432c-15.258-5.205-30.473-10.531-45.637-16.004
	c-25.346-9.152-50.631-18.477-75.961-27.686c-8.309-3.023-16.672-5.908-25.009-8.867c-0.81-0.285-1.592-0.648-2.352-1.449
	c2.744-0.809,5.496-1.58,8.226-2.432c24.471-7.629,48.092-17.188,69.873-30.913c12.641-7.966,24.443-16.993,34.656-27.948
	c9.484-10.176,17.43-21.415,22.49-34.485c4.045-10.449,6.246-21.286,5.648-32.508c-0.598-11.215-3.982-21.531-10.814-30.642
	c-7.449-9.925-16.889-17.368-27.797-23.098c-10.98-5.767-22.611-9.694-34.645-12.533c-11.52-2.716-23.148-4.821-34.893-6.213
	c-6.808-0.807-13.657-1.413-20.502-1.735c-9.82-0.464-19.658-0.874-29.483-0.784c-12.725,0.12-25.436,0.691-38.1,2.165
	c-13.48,1.566-26.856,3.694-40.089,6.643c-18.591,4.143-36.775,9.632-54.302,17.161c-2.67,1.147-5.319,2.335-7.969,3.521
	c0,0-54.826,24.718-27.971,62.011l1.44-0.816c-0.002,0.001-0.002,0.001-0.002,0.003l-1.438,0.813
	c0.388-0.217,0.878-0.491,1.438-0.806c1.964-1.103,4.854-2.734,7.886-4.446c4.965-2.806,10.277-5.815,12.425-7.029
	c3.402-1.836,6.829-3.63,10.31-5.326c17.519-8.539,35.701-15.262,54.613-20.022c12.839-3.231,25.812-5.769,38.908-7.601
	c12.859-1.8,25.782-2.992,38.779-3.22c6.525-0.115,13.052-0.409,19.579-0.391c10.499,0.029,20.994,0.551,31.41,1.896
	c8.106,1.047,16.229,2.126,24.243,3.722c11.232,2.234,22.084,5.729,31.955,11.752c4.193,2.559,7.91,5.676,11.047,9.484
	c4.193,5.083,5.588,10.995,5.141,17.392c-0.914,13.104-6.078,24.357-14.754,34.185c-10.334,11.704-22.791,20.538-36.439,27.87
	c-11.551,6.205-23.732,10.877-36.178,14.906c-13.929,4.514-28.069,8.19-42.458,10.943c-10.647,2.044-21.359,3.573-32.141,4.607
	c-5.019,0.48-10.061,0.699-15.092,1.02c-0.47,0.03-0.949-0.049-1.688-0.092c0.527-3.071,0.897-6.011,1.549-8.883
	c2.062-9.104,4.205-18.189,6.368-27.269c2.418-10.146,4.445-20.384,5.095-30.781c0.61-9.722-2.113-18.519-9.655-25.273
	c-5.558-4.979-12.191-6.858-19.511-6.176c-5.466,0.508-8.776,3.966-10.606,8.883c-1.179,3.171-2.227,6.413-3.029,9.698
	c-3.676,15.006-7.328,30.021-10.813,45.072c-1.806,7.808-3.25,15.695-4.863,23.545c-0.064,0.316-0.165,0.624-0.342,1.27
	c-1.585,0.01-3.209,0.07-4.829,0.023c-3.426-0.097-6.757,0.449-10.025,1.422c-10.42,3.101-12.75,12.456-7.607,20.794
	c2.059,3.339,5.145,5.591,8.501,7.435c3.031,1.668,6.181,3.119,9.486,4.768c-0.145,1.926-0.317,3.969-0.448,6.012
	c-0.541,8.492-1.025,16.988-1.616,25.475c-0.601,8.605-0.034,17.188,0.567,25.754c0.361,5.178,1.219,10.33,2.079,15.455
	c0.306,1.836,1.124,3.633,1.967,5.32c1.722,3.447,4.722,5.379,8.451,5.762c3.583,0.371,6.834-0.844,9.566-3.281
	c2.127-1.893,3.776-4.152,5.144-6.631c3.37-6.111,5.705-12.65,7.758-19.295c4.037-13.045,6.842-26.387,9.46-39.771
	c0.168-0.869,0.452-1.719,0.729-2.744c1.079,0.115,1.974,0.17,2.855,0.309c13.512,2.117,26.659,5.693,39.608,10.021
	c7.837,2.619,15.692,5.217,23.381,8.229c10.925,4.281,21.799,8.725,32.527,13.475c21.163,9.367,42.187,19.047,63.312,28.506
	c13.73,6.146,27.527,12.145,41.645,17.363c6.061,2.244,12.25,4.135,18.68,4.844c10.131,1.113,20.168,0.605,29.818-3.055
	c4.695-1.781,8.852-4.391,11.947-8.516C384.523,281.8,379.25,270.515,369.953,267.741z"/>
</svg>
